<svg viewBox="0 0 16 16" xmlns="http://www.w3.org/2000/svg"><path d="m15.1109513 15.9937079c.4874307 0 .8826367-.395266.8826367-.8826967v-14.22831457c0-.48761049-.3952659-.88269663-.8826367-.88269663h-14.22825467c-.48761049 0-.88269663.39514607-.88269663.88269663v14.22825467c0 .4874906.39508614.8826966.88269663.8826966h14.22825467zm-4.0756255 0v-6.19361801h2.0789214l.3112509-2.41378277h-2.3902322v-1.54109364c0-.69884644.1940375-1.17507116 1.1962247-1.17507116l1.2781424-.00059925v-2.15886142c-.2210637-.0293633-.9798352-.09510113-1.862472-.09510113-1.84287636 0-3.10453928 1.12485394-3.10453928 3.19065169v1.78007491h-2.08425468v2.41378277h2.08425468v6.19355801h2.49270408z" fill="#485a96" fill-rule="evenodd"/></svg>