<svg viewBox="0 0 16 16" xmlns="http://www.w3.org/2000/svg"><g><path d="m8 0c-4.41842375 0-8 3.58157625-8 8 0 4.4184237 3.58157625 8 8 8 4.4184237 0 8-3.5815763 8-8 0-4.41787786-3.5815763-7.99945411-8-8z" fill="#2ebd59"/><path d="m11.6689185 11.5379052c-.1435688.2358239-.4509042.3095189-.6856363.1659501-1.87840332-1.1480041-4.24319349-1.4073012-7.02777214-.7713408-.26857727.0616854-.53606277-.1064483-.59720232-.3750256-.06168543-.2685773.10590243-.5360628.37502559-.59720231 3.04715115-.69600819 5.66141249-.39631525 7.77018087.89198231.2347321.1446605.3095189.4509041.1654043.6856363z"/><path d="m12.647697 9.36035483c-.1806892.29368816-.5649949.38539747-.8581371.20525418-2.14971002-1.32159673-5.428318-1.70426476-7.97161381-.93237803-.32971682.09989765-.67799386-.08625043-.77843739-.41542136-.09935176-.32971682.08679632-.67744797.41596725-.7778915 2.90522006-.88161038 6.51736608-.45472535 8.98642105 1.06284544.2936881.18068919.3864892.564449.2058.85759127z"/><path d="m12.7317639 7.09164108c-2.5787786-1.53121802-6.83234391-1.67205732-9.29430228-.92528148-.39522348.12009553-.81337428-.10317297-.93292392-.49839645-.11954964-.39522347.10317298-.81337427.49894234-.9334698 2.82606619-.85759127 7.52343906-.69218697 10.49198226 1.069942.3553736.21125895.4721938.67035141.2614807 1.02517912-.2101672.35591948-.6703514.47328556-1.0251791.26202661z"/></g></svg>